<svg xmlns="http://www.w3.org/2000/svg" version="1.1" xmlns:xlink="http://www.w3.org/1999/xlink" xmlns:svgjs="http://svgjs.dev/svgjs" width="128" height="128" viewBox="0 0 128 128"><g transform="matrix(0.8046875,0,0,0.8046875,15.094958930255743,14.994911136826282)"><svg viewBox="0 0 96 91" data-background-color="#fafafa" preserveAspectRatio="xMidYMid meet" height="121" width="128" xmlns="http://www.w3.org/2000/svg" xmlns:xlink="http://www.w3.org/1999/xlink"><g id="tight-bounds" transform="matrix(1,0,0,1,0.25950000000000273,0.30047140160856145)"><svg viewBox="0 0 95.481 90.1765" height="90.1765" width="95.481"><g><svg viewBox="0 0 95.481 90.1765" height="90.1765" width="95.481"><g><svg viewBox="0 0 95.481 90.1765" height="90.1765" width="95.481"><g id="textblocktransform"><svg viewBox="0 0 95.481 90.1765" height="90.1765" width="95.481" id="textblock"><g><svg viewBox="0 0 95.481 90.1765" height="90.1765" width="95.481"><g><svg viewBox="0 0 95.481 90.1765" height="90.1765" width="95.481"><g><svg xmlns="http://www.w3.org/2000/svg" viewBox="3 3.5 18 17" x="0" y="0" height="90.1765" width="95.481" class="icon-icon-0" data-fill-palette-color="accent" id="icon-0"><path d="M5.5 20.5A0.5 0.5 0 0 1 5 20L4.6 16A7.34 7.34 0 0 1 3 11.5C3 7.09 7 3.5 12 3.5S21 7.09 21 11.5 17 19.5 12 19.5A10 10 0 0 1 9.33 19.14L5.67 20.47A0.5 0.5 0 0 1 5.5 20.5M12 4.5C7.59 4.5 4 7.64 4 11.5A6.37 6.37 0 0 0 5.47 15.5 0.5 0.5 0 0 1 5.58 15.76L5.93 19.27 9.14 18.1A0.5 0.5 0 0 1 9.45 18.1 9 9 0 0 0 12 18.5C16.41 18.5 20 15.36 20 11.5S16.41 4.5 12 4.5" fill="#e77917" data-fill-palette-color="accent"></path><path d="M12.5 13.5A0.5 0.5 0 0 1 12.03 13.17L11.22 10.85 7.72 12.59A0.5 0.5 0 1 1 7.27 11.7L11.27 9.7A0.5 0.5 0 0 1 12 10L12.82 12.34 16.32 10.72A0.5 0.5 0 0 1 16.74 11.63L12.74 13.49A0.5 0.5 0 0 1 12.5 13.5" fill="#e77917" data-fill-palette-color="accent"></path></svg></g></svg></g></svg></g></svg></g></svg></g><g></g></svg></g><defs></defs></svg><rect width="95.481" height="90.1765" fill="none" stroke="none" visibility="hidden"></rect></g></svg></g></svg>